# xmcd CD database file generated by Grip 2.94
# 
# Track frame offsets:
#       150
#       21477
#       42442
#       61537
#       80425
#       101207
#       114535
#       136900
#       155600
#       173785
#       188085
# 
# Disc length: 2733 seconds
# 
# Revision: 3
# Processed by: cddbd v1.4PL0 Copyright (c) Steve Scherf et al.
# Submitted via: Grip 2.94
# 
DISCID=8e0aab0b
DTITLE=JAF - Corazón_en_llamas
DYEAR=1900
DGENRE=
TTITLE0=CEL01-La_Sombra
TTITLE1=CEL02-Deja_Que_Hable_Tu_Corazón
TTITLE2=CEL03-La_Casa_Del_Sol_Naciente
TTITLE3=CEL04-El_Fantasma_De_Mi_Alma
TTITLE4=CEL05-Corazón_En_Llamas
TTITLE5=CEL06-Nuestros_Años_Felices
TTITLE6=CEL07-Quedate_Conmigo
TTITLE7=CEL08-Vieja_Fleetline_47
TTITLE8=CEL09-Dímelo
TTITLE9=CEL10-Eres_Tan_Hermosa
TTITLE10=CEL11-Blues_Esclavo
EXTD=
EXTT0=
EXTT1=
EXTT2=
EXTT3=
EXTT4=
EXTT5=
EXTT6=
EXTT7=
EXTT8=
EXTT9=
EXTT10=
PLAYORDER=
